<svg xmlns="http://www.w3.org/2000/svg" version="1.1" xmlns:xlink="http://www.w3.org/1999/xlink" width="165" height="40"><svg xmlns="http://www.w3.org/2000/svg" version="1.1" xmlns:xlink="http://www.w3.org/1999/xlink" width="165" height="40"><svg width="165" height="40" viewBox="0 0 165 40" fill="none" xmlns="http://www.w3.org/2000/svg">
<path d="M9.69201 40C6.24999 40 2.71739 38.8385 0 36.4262L2.98913 32.9417C5.02717 34.5946 7.20108 35.6667 9.78259 35.6667C11.8206 35.6667 13.0887 34.8626 13.0887 33.5224V33.4778C13.0887 32.2269 12.3188 31.6015 8.46919 30.6187C3.89492 29.4126 0.905796 28.1617 0.905796 23.6944V23.6498C0.905796 19.5399 4.25724 16.8595 8.92209 16.8595C12.2282 16.8595 15.0815 17.887 17.3913 19.7186L14.7645 23.4711C12.7264 22.0862 10.7337 21.2374 8.83151 21.2374C6.92934 21.2374 5.88767 22.0862 5.88767 23.203V23.2477C5.88767 24.7219 6.88405 25.2133 10.8243 26.1961C15.4438 27.4023 18.0706 29.0105 18.0706 32.9417V32.9864C18.0706 37.4983 14.6286 40 9.69201 40Z" fill="#536028"></path>
<path d="M32.0826 40C26.0201 40 22.2927 36.6142 22.2927 30.0207V17.1901H27.2775V29.887C27.2775 33.5402 29.1187 35.4558 32.1725 35.4558C35.2262 35.4558 37.0674 33.6293 37.0674 30.0652V17.1901H42.0522V29.8425C42.0073 36.6587 38.1452 40 32.0826 40Z" fill="#536028"></path>
<path d="M56.1146 39.6694H47.2876V17.1901H56.1597C63.2753 17.1901 68.2293 22.0517 68.2293 28.3852V28.4298C68.1842 34.7632 63.2753 39.6694 56.1146 39.6694ZM56.1146 21.6503H52.2416V35.2092H56.1146C60.2129 35.2092 62.9601 32.4885 62.9601 28.519V28.4744C62.9601 24.4602 60.2129 21.6503 56.1146 21.6503Z" fill="#536028"></path>
<path d="M72.7892 17.1901H77.8641V35.1646H89.3398V39.6694H72.7892V17.1901Z" fill="#536028"></path>
<path d="M129.785 39.6694H118.895V17.1901H129.513C134.187 17.1901 137.045 19.4648 137.045 22.9883V23.0329C137.045 25.5752 135.684 27.0025 134.05 27.8945C136.682 28.8758 138.316 30.3922 138.316 33.4252V33.4698C138.361 37.6177 134.958 39.6694 129.785 39.6694ZM128.787 21.5165H123.841V26.2889H128.469C130.693 26.2889 132.099 25.5752 132.099 23.925V23.8804C132.054 22.3639 130.874 21.5165 128.787 21.5165ZM129.603 30.3922H123.795V35.343H129.785C132.008 35.343 133.324 34.5848 133.324 32.8899V32.8453C133.324 31.3289 132.19 30.3922 129.603 30.3922Z" fill="#56632A"></path>
<path d="M150.566 40C147.115 40 143.619 38.7938 140.85 36.3815L143.846 32.897C145.889 34.5499 148.069 35.6221 150.656 35.6221C152.7 35.6221 153.971 34.818 153.971 33.4778V33.4331C153.971 32.1823 153.199 31.5568 149.34 30.574C144.709 29.4125 141.758 28.1617 141.758 23.6944V23.6498C141.758 19.5845 145.072 16.8595 149.748 16.8595C153.063 16.8595 155.923 17.887 158.239 19.7186L155.605 23.4711C153.562 22.0862 151.565 21.2374 149.658 21.2374C147.751 21.2374 146.706 22.0862 146.706 23.203V23.2477C146.706 24.7219 147.705 25.2133 151.655 26.1961C156.286 27.4023 158.92 29.0105 158.92 32.9417V32.9864C158.965 37.4983 155.515 40 150.566 40Z" fill="#C99C27"></path>
<path d="M157.991 4.13223C159.25 4.13223 160.271 3.2072 160.271 2.06612C160.271 0.925031 159.25 0 157.991 0C156.732 0 155.711 0.925031 155.711 2.06612C155.711 3.2072 156.732 4.13223 157.991 4.13223Z" fill="#C99C27"></path>
<path d="M162.213 11.2397C163.752 11.2397 165 10.0186 165 8.5124C165 7.00617 163.752 5.78512 162.213 5.78512C160.674 5.78512 159.427 7.00617 159.427 8.5124C159.427 10.0186 160.674 11.2397 162.213 11.2397Z" fill="#C99C27"></path>
<path d="M156.471 15.3719C157.357 15.3719 158.076 14.6689 158.076 13.8017C158.076 12.9344 157.357 12.2314 156.471 12.2314C155.585 12.2314 154.867 12.9344 154.867 13.8017C154.867 14.6689 155.585 15.3719 156.471 15.3719Z" fill="#C99C27"></path>
<path d="M105.538 17.0248H100.884L91.0287 39.7899H94.7245H96.1845H98.9678C98.8766 39.7899 98.8309 39.7451 98.7397 39.7451C97.6446 39.5658 97.1427 38.7144 97.5077 37.6837C97.599 37.4596 97.7359 37.1907 97.8727 36.9667C99.1047 34.9949 100.291 32.9783 101.523 31.0065C101.569 30.9169 101.614 30.7376 101.614 30.648C101.614 29.931 101.614 29.214 101.614 28.5418C101.614 28.4522 101.614 28.4073 101.614 28.3177C101.34 28.2729 101.021 28.3625 100.884 28.0488C100.793 27.8248 100.93 27.6903 101.112 27.5559C102.481 27.5559 103.896 27.5559 105.264 27.5559C105.401 27.6903 105.584 27.8248 105.493 28.0488C105.356 28.4073 105.036 28.3177 104.762 28.3625C104.762 29.214 104.762 30.0206 104.762 30.8721C104.762 30.9617 104.808 31.0513 104.854 31.0961C106.086 33.1127 107.318 35.0845 108.504 37.1011C108.641 37.37 108.778 37.594 108.869 37.8629C109.143 38.7144 108.823 39.4314 108.002 39.7003C107.82 39.7451 107.591 39.7899 107.409 39.8347H110.055H110.603H115.348L105.538 17.0248Z" fill="#C99C27"></path>
</svg></svg><style>@media (prefers-color-scheme: light) { :root { filter: none; } }
@media (prefers-color-scheme: dark) { :root { filter: none; } }
</style></svg>