<svg width="327" height="82" viewBox="0 0 327 82" fill="none" xmlns="http://www.w3.org/2000/svg">
<path d="M19.2078 82C12.3863 82 5.38537 79.619 0 74.6737L5.9239 67.5305C9.96293 70.9189 14.2712 73.1168 19.3873 73.1168C23.4263 73.1168 25.9395 71.4684 25.9395 68.721V68.6295C25.9395 66.0652 24.4137 64.7831 16.7844 62.7684C7.71903 60.2958 1.79512 57.7315 1.79512 48.5736V48.482C1.79512 40.0568 8.43708 34.562 17.682 34.562C24.2342 34.562 29.8888 36.6683 34.4664 40.4231L29.2605 48.1157C25.2215 45.2768 21.2722 43.5368 17.5024 43.5368C13.7327 43.5368 11.6683 45.2768 11.6683 47.5663V47.6578C11.6683 50.6799 13.6429 51.6873 21.4517 53.7021C30.6068 56.1747 35.8127 59.4715 35.8127 67.5305V67.6221C35.8127 76.8716 28.9912 82 19.2078 82Z" fill="white"/>
<path d="M63.582 82.0001C51.5671 82.0001 44.1801 75.0591 44.1801 61.5424V35.2397H54.0591V61.2684C54.0591 68.7574 57.708 72.6845 63.76 72.6845C69.8119 72.6845 73.4609 68.9401 73.4609 61.6338V35.2397H83.3398V61.1771C83.2508 75.1504 75.5969 82.0001 63.582 82.0001Z" fill="white"/>
<path d="M111.209 81.3224H93.7155V35.2397H111.298C125.4 35.2397 135.218 45.206 135.218 58.1896V58.2811C135.129 71.2647 125.4 81.3224 111.209 81.3224ZM111.209 44.3831H103.533V72.179H111.209C119.331 72.179 124.775 66.6015 124.775 58.4639V58.3725C124.775 50.1435 119.331 44.3831 111.209 44.3831Z" fill="white"/>
<path d="M144.255 35.2397H154.312V72.0876H177.055V81.3224H144.255V35.2397Z" fill="white"/>
<path d="M257.21 81.3224H235.627V35.2397H256.671C265.933 35.2397 271.599 39.9029 271.599 47.1261V47.2176C271.599 52.4293 268.901 55.3552 265.664 57.1839C270.879 59.1954 274.117 62.3042 274.117 68.5217V68.6131C274.207 77.1164 267.462 81.3224 257.21 81.3224ZM255.232 44.1088H245.43V53.8922H254.602C259.009 53.8922 261.797 52.4293 261.797 49.0463V48.9548C261.707 45.8461 259.369 44.1088 255.232 44.1088ZM256.851 62.3042H245.34V72.4533H257.21C261.617 72.4533 264.225 70.8989 264.225 67.4245V67.333C264.225 64.2243 261.976 62.3042 256.851 62.3042Z" fill="white"/>
<path d="M298.394 82C291.555 82 284.627 79.5274 279.138 74.5821L285.077 67.4389C289.126 70.8274 293.445 73.0253 298.574 73.0253C302.623 73.0253 305.142 71.3768 305.142 68.6295V68.5379C305.142 65.9737 303.613 64.6916 295.964 62.6768C286.786 60.2958 280.938 57.7315 280.938 48.5736V48.482C280.938 40.1483 287.506 34.562 296.774 34.562C303.343 34.562 309.011 36.6683 313.6 40.4231L308.382 48.1157C304.332 45.2768 300.373 43.5368 296.594 43.5368C292.815 43.5368 290.746 45.2768 290.746 47.5663V47.6578C290.746 50.6799 292.725 51.6873 300.553 53.7021C309.731 56.1747 314.95 59.4715 314.95 67.5305V67.6221C315.04 76.8716 308.202 82 298.394 82Z" fill="white"/>
<path d="M313.11 8.47108C315.605 8.47108 317.628 6.57476 317.628 4.23554C317.628 1.89631 315.605 0 313.11 0C310.615 0 308.592 1.89631 308.592 4.23554C308.592 6.57476 310.615 8.47108 313.11 8.47108Z" fill="white"/>
<path d="M321.477 23.0412C324.527 23.0412 327 20.5381 327 17.4503C327 14.3625 324.527 11.8594 321.477 11.8594C318.427 11.8594 315.955 14.3625 315.955 17.4503C315.955 20.5381 318.427 23.0412 321.477 23.0412Z" fill="white"/>
<path d="M310.098 31.5122C311.854 31.5122 313.277 30.071 313.277 28.2932C313.277 26.5154 311.854 25.0742 310.098 25.0742C308.342 25.0742 306.918 26.5154 306.918 28.2932C306.918 30.071 308.342 31.5122 310.098 31.5122Z" fill="white"/>
<path d="M209.157 34.9009H199.934L180.402 81.5693H187.727H190.62H196.136C195.955 81.5693 195.865 81.4775 195.684 81.4775C193.514 81.11 192.519 79.3645 193.243 77.2516C193.423 76.7923 193.695 76.2411 193.966 75.7817C196.407 71.7396 198.759 67.6055 201.2 63.5634C201.29 63.3797 201.381 63.0122 201.381 62.8285C201.381 61.3586 201.381 59.8887 201.381 58.5107C201.381 58.327 201.381 58.2351 201.381 58.0514C200.838 57.9595 200.205 58.1432 199.934 57.5002C199.753 57.0408 200.024 56.7652 200.386 56.4896C203.099 56.4896 205.902 56.4896 208.615 56.4896C208.886 56.7652 209.248 57.0408 209.067 57.5002C208.796 58.2351 208.163 58.0514 207.62 58.1432C207.62 59.8887 207.62 61.5423 207.62 63.2878C207.62 63.4715 207.711 63.6553 207.801 63.7471C210.242 67.8812 212.684 71.9233 215.035 76.0573C215.306 76.6085 215.578 77.0679 215.758 77.6191C216.301 79.3645 215.668 80.8344 214.04 81.3856C213.679 81.4775 213.227 81.5693 212.865 81.6612H218.109H219.195H228.599L209.157 34.9009Z" fill="white"/>
</svg>
