<svg width="91" height="160" viewBox="0 0 91 160" fill="none" xmlns="http://www.w3.org/2000/svg">
<path d="M53.8077 109.741C48.1037 112.742 42.9509 114.951 38.3964 116.767C36.1398 117.68 33.9999 118.444 32.034 119.201C31.9841 119.234 31.9428 119.225 31.8929 119.258C17.8333 124.538 10.8241 127.183 6.15472 144.356C5.83298 145.496 4.7033 146.168 3.58767 145.937C3.54635 145.928 3.50503 145.92 3.46371 145.911C3.10037 145.793 2.75411 145.592 2.49904 145.367C1.96463 144.826 1.69661 144.038 1.90871 143.22C6.99375 124.452 15.3747 120.799 29.0611 115.657C29.4843 115.486 29.9074 115.315 30.3718 115.152C31.9147 114.566 33.4989 113.989 35.1415 113.337C40.0607 111.424 45.5284 109.151 51.7723 105.831C63.8528 99.4953 70.5289 91.9996 71.6668 83.5748C72.9612 73.976 67.2668 62.5451 54.6563 49.5556C53.4479 48.3149 52.1568 47.0571 50.8329 45.7495C50.4709 45.4162 50.109 45.0829 49.7555 44.7083C23.2611 19.8879 29.0406 3.80548 29.7967 2.02295C29.8807 1.82489 29.9562 1.66815 30.073 1.51995C30.6655 0.737635 31.7183 0.438203 32.6673 0.849745C33.773 1.33676 34.2862 2.6061 33.8405 3.72035C33.765 3.87709 32.2941 7.45069 33.9568 13.9985C35.4498 19.908 39.9812 29.4614 52.7881 41.5005C53.5776 42.2668 54.3756 42.9918 55.1651 43.7582C56.5631 45.1242 57.8784 46.4731 59.1524 47.8136C71.9825 61.4085 77.5331 73.3267 76.0737 84.1409C74.711 94.0703 67.2002 102.686 53.8077 109.741Z" fill="#EACE44"/>
<g opacity="0.57">
<path d="M50.5793 109.936C44.8753 112.936 39.7224 115.146 35.1679 116.962C32.9113 117.874 30.7715 118.638 28.8055 119.395C28.7557 119.428 28.7143 119.42 28.6645 119.452C14.6048 124.733 7.59564 127.377 2.92628 144.551C2.8665 144.84 2.72409 145.112 2.54889 145.335C2.01449 144.793 1.74646 144.005 1.95857 143.188C7.0436 124.42 15.4246 120.766 29.111 115.624C29.5341 115.453 29.9572 115.282 30.4217 115.119C31.9645 114.533 33.5487 113.956 35.1913 113.305C40.1106 111.392 45.5782 109.118 51.8222 105.798C63.9026 99.4625 70.5788 91.9668 71.7167 83.542C73.0111 73.9432 67.3167 62.5123 54.7062 49.5228C53.4977 48.2821 52.2066 47.0244 50.8827 45.7167C50.5208 45.3834 50.1588 45.0501 49.8054 44.6755C23.2611 19.8879 29.0406 3.80548 29.7967 2.02295C29.8807 1.82489 29.9562 1.66815 30.073 1.51995C30.6815 2.11963 30.9154 3.07274 30.5622 3.94761C30.4868 4.10435 29.0158 7.67795 30.6785 14.2257C32.1715 20.1353 36.7029 29.6886 49.5098 41.7277C50.2993 42.4941 51.0973 43.2191 51.8868 43.9854C53.2848 45.3515 54.6001 46.7004 55.8741 48.0408C68.7042 61.6358 74.2548 73.554 72.7954 84.3682C71.4327 94.2975 63.9718 102.88 50.5793 109.936Z" fill="#EACE44"/>
</g>
<path opacity="0.57" d="M59.1439 47.8549C57.7919 48.351 56.1992 48.9697 54.6976 49.5641C53.4892 48.3234 52.1981 47.0657 50.8742 45.758C52.219 45.0881 53.7049 44.3612 55.1566 43.7995C56.5545 45.1655 57.8699 46.5145 59.1439 47.8549Z" fill="#EACE44"/>
<path opacity="0.57" d="M38.4377 116.776C36.1811 117.688 34.0413 118.453 32.0753 119.209L29.1025 115.665C29.5256 115.494 29.9487 115.323 30.4131 115.161C31.956 114.575 33.5402 113.997 35.1828 113.346L38.4377 116.776Z" fill="#EACE44"/>
<path d="M60.0567 154.764C60.1804 153.54 60.3369 152.366 60.3936 151.257L60.4021 151.216C60.5641 149.181 60.6007 147.336 60.5619 145.648C60.3928 141.046 59.3476 137.556 57.1941 134.008C56.4814 132.87 55.6862 131.715 54.7669 130.534C52.1076 127.141 48.3996 123.402 43.4831 118.422C42.628 117.556 41.773 116.69 40.8852 115.774C40.5973 115.499 40.3508 115.233 40.0629 114.958C39.2406 114.141 38.4269 113.284 37.5719 112.418C35.6894 110.478 33.6672 108.38 31.4811 106.032C21.125 95.0596 17.3412 83.765 20.4862 73.3423C23.9102 61.9863 35.3146 52.6673 52.2479 47.0329C52.9446 46.7891 53.6327 46.5867 54.3208 46.3842C55.1998 46.0919 56.1116 45.8495 57.0234 45.6071C58.4822 45.2193 59.991 44.7986 61.5652 44.4777C70.2914 42.4897 90.5512 35.5609 89.6019 14.5119C89.5777 14.4207 89.5947 14.338 89.5705 14.2469C89.6187 13.1797 88.8805 12.1655 87.8061 11.9434C87.3516 11.8495 86.9128 11.8881 86.531 12.0677C85.8757 12.32 85.3672 12.9043 85.2135 13.648C85.1452 13.9786 85.1766 14.2436 85.1653 14.7152C85.4989 22.0654 82.7093 35.1466 60.5 40.2507C58.0139 40.814 55.6433 41.4443 53.3468 42.133C52.4763 42.3839 51.5973 42.6762 50.7183 42.9685C50.0216 43.2122 49.2837 43.4475 48.587 43.6913C31.5014 49.8543 19.9517 59.8757 16.2245 72.0738C12.5812 84.0738 16.7443 96.8686 28.2347 109.023C29.9691 110.847 31.5637 112.512 33.0843 114.119C33.9721 115.035 34.8272 115.901 35.6409 116.758C35.8874 117.024 36.134 117.291 36.389 117.516C37.7372 118.915 39.0611 120.222 40.2695 121.463C46.9289 128.225 51.0644 132.397 53.4717 136.384C54.4623 138.054 55.1636 139.664 55.5829 141.388C56.1076 143.435 56.2506 145.662 56.1757 148.317C56.1302 148.954 56.1176 149.641 56.0636 150.319C55.9925 151.08 55.9214 151.841 55.8333 152.684C55.7281 153.61 55.6228 154.537 55.5005 155.545C55.4749 155.669 55.4493 155.793 55.465 155.926C55.4295 156.306 55.4438 156.654 55.5906 156.986C55.7047 157.268 55.86 157.558 56.0738 157.775C56.3531 158.091 56.7407 158.301 57.1952 158.394C57.2365 158.403 57.3192 158.42 57.3605 158.429C58.3279 158.542 59.2581 158.002 59.6526 157.136C59.7366 156.938 59.8206 156.74 59.822 156.525C59.9416 155.946 59.9785 155.351 60.0567 154.764Z" fill="#C2E563"/>
<g opacity="0.55">
<path d="M57.6943 154.103C57.7029 154.062 57.7199 153.979 57.7285 153.938C57.8679 152.846 57.9574 151.788 58.0384 150.77C58.0312 150.597 58.0739 150.39 58.0667 150.216C58.4331 144.691 58.0532 140.692 56.5707 137.025C55.9677 135.565 55.2237 134.161 54.3143 132.724C51.5936 128.586 47.3184 124.255 41.078 117.968C40.5849 117.435 40.042 116.935 39.5076 116.394C39.261 116.128 38.9732 115.853 38.7266 115.586C37.9044 114.77 37.0493 113.904 36.2028 112.997C34.0324 110.782 31.6568 108.309 29.076 105.578C18.7199 94.6056 14.9361 83.311 18.0811 72.8883C21.6062 61.2516 33.5335 51.696 51.2689 46.1412C51.957 45.9387 52.695 45.7035 53.3831 45.501C54.2536 45.2501 55.1739 44.9663 56.1185 44.7738C57.1214 44.5071 58.1159 44.2818 59.1602 44.0237C67.8863 42.0357 88.1461 35.1069 87.1968 14.0578C87.1726 13.9667 87.1897 13.884 87.2067 13.8014C87.2522 13.1645 87.0326 12.559 86.5638 12.1175C85.9085 12.3698 85.4 12.9541 85.2463 13.6978C85.1779 14.0284 85.2093 14.2934 85.1981 14.765C85.5317 22.1152 82.7421 35.1964 60.5328 40.3005C58.0467 40.8639 55.6761 41.4941 53.3795 42.1828C52.5091 42.4337 51.6301 42.726 50.7511 43.0183C50.0544 43.2621 49.3164 43.4973 48.6198 43.7411C31.5014 49.8542 19.9517 59.8756 16.2244 72.0737C12.5812 84.0738 16.7443 96.8685 28.2347 109.023C29.9691 110.847 31.5637 112.512 33.0843 114.119C33.9721 115.034 34.8272 115.901 35.6409 116.758C35.8874 117.024 36.134 117.291 36.389 117.516C37.7372 118.915 39.0611 120.222 40.2695 121.463C46.9289 128.225 51.0644 132.397 53.4717 136.384C54.4623 138.054 55.1636 139.664 55.5829 141.388C56.1076 143.435 56.2506 145.662 56.1757 148.317C56.1302 148.954 56.1176 149.641 56.0636 150.319C55.9925 151.08 55.9214 151.841 55.8333 152.684C55.7281 153.61 55.6228 154.537 55.5005 155.545C55.4749 155.669 55.4493 155.793 55.465 155.926C55.4295 156.306 55.4438 156.654 55.5906 156.986C55.7047 157.268 55.86 157.558 56.0738 157.775C56.7291 157.523 57.2376 156.938 57.3828 156.236C57.3999 156.153 57.4084 156.112 57.4255 156.029C57.5621 155.368 57.6076 154.731 57.6943 154.103Z" fill="#C2E563"/>
</g>
<path d="M78.553 14.8135C78.5189 14.9788 78.4434 15.1355 78.3351 15.2424C78.1186 15.4561 77.7952 15.5616 77.506 15.5019L40.0704 7.76526C39.7399 7.69694 39.4848 7.47189 39.4121 7.19835C39.355 7.05732 39.3479 6.8835 39.382 6.71822C39.4845 6.22239 39.9746 5.9359 40.4291 6.02983L77.8646 13.7664C78.369 13.8276 78.6555 14.3177 78.553 14.8135Z" fill="#EAFDFF"/>
<path d="M76.5548 24.4823C76.5207 24.6475 76.4452 24.8043 76.3369 24.9112C76.1204 25.1249 75.797 25.2304 75.5078 25.1706L39.8077 17.7927C39.4771 17.7244 39.222 17.4993 39.1493 17.2258C39.0923 17.0847 39.0851 16.9109 39.1193 16.7456C39.2217 16.2498 39.7118 15.9633 40.1663 16.0573L75.8665 23.4352C76.3623 23.5377 76.6573 23.9864 76.5548 24.4823Z" fill="#EAFDFF"/>
<path d="M70.4575 33.347C70.4233 33.5123 70.3478 33.669 70.2396 33.7759C70.0231 33.9897 69.6997 34.0952 69.4104 34.0354L45.9409 29.1851C45.6103 29.1168 45.3552 28.8917 45.2825 28.6182C45.2255 28.4771 45.2183 28.3033 45.2525 28.138C45.355 27.6422 45.845 27.3557 46.2995 27.4497L69.7691 32.3C70.2236 32.3939 70.5599 32.8512 70.4575 33.347Z" fill="#EAFDFF"/>
<path d="M61.0576 61.7358C61.0234 61.901 60.9479 62.0578 60.8397 62.1647C60.6232 62.3784 60.2998 62.4839 60.0105 62.4241L39.7639 58.2399C39.4334 58.1716 39.1783 57.9465 39.1056 57.673C39.0485 57.5319 39.0414 57.3581 39.0755 57.1928C39.178 56.697 39.6681 56.4105 40.1226 56.5045L60.3692 60.6887C60.8237 60.7827 61.16 61.2399 61.0576 61.7358Z" fill="#EAFDFF"/>
<path d="M63.8026 72.4279C63.7684 72.5932 63.693 72.7499 63.5847 72.8568C63.3682 73.0706 63.0448 73.1761 62.7556 73.1163L31.5179 66.6606C31.1874 66.5923 30.9323 66.3672 30.8596 66.0937C30.8025 65.9526 30.7954 65.7788 30.8295 65.6135C30.932 65.1177 31.4221 64.8312 31.8766 64.9252L63.0729 71.3723C63.5773 71.4335 63.9051 71.9321 63.8026 72.4279Z" fill="#EAFDFF"/>
<path d="M64.5229 82.7016C64.4888 82.8669 64.4133 83.0236 64.3051 83.1305C64.0885 83.3443 63.7651 83.4498 63.4759 83.39L26.0403 75.6534C25.7098 75.5851 25.4547 75.36 25.382 75.0865C25.325 74.9454 25.3178 74.7716 25.352 74.6063C25.4544 74.1105 25.9445 73.824 26.399 73.918L63.8346 81.6546C64.3389 81.7157 64.6254 82.2058 64.5229 82.7016Z" fill="#EAFDFF"/>
<path d="M60.1695 91.8837C60.1354 92.0489 60.0599 92.2057 59.9516 92.3126C59.7351 92.5263 59.4117 92.6318 59.1225 92.572L27.3064 85.9968C26.9758 85.9285 26.7208 85.7034 26.648 85.4299C26.591 85.2888 26.5838 85.115 26.618 84.9497C26.7205 84.4539 27.2105 84.1674 27.665 84.2614L59.4811 90.8366C59.977 90.9391 60.272 91.3878 60.1695 91.8837Z" fill="#EAFDFF"/>
<path d="M51.8822 100.296C51.8481 100.461 51.7726 100.618 51.6643 100.725C51.4478 100.938 51.1244 101.044 50.8352 100.984L30.4646 96.7743C30.134 96.706 29.879 96.4809 29.8062 96.2074C29.7492 96.0663 29.7421 95.8925 29.7762 95.7273C29.8787 95.2314 30.3687 94.9449 30.8233 95.0389L51.1938 99.2487C51.6569 99.3014 51.9847 99.8 51.8822 100.296Z" fill="#EAFDFF"/>
<path d="M42.4823 128.685C42.4482 128.85 42.3727 129.007 42.2644 129.113C42.0479 129.327 41.7245 129.433 41.4353 129.373L26.5602 126.299C26.2297 126.231 25.9746 126.005 25.9019 125.732C25.8448 125.591 25.8377 125.417 25.8718 125.252C25.9743 124.756 26.4644 124.469 26.9189 124.563L41.7526 127.629C42.2485 127.732 42.5848 128.189 42.4823 128.685Z" fill="#EAFDFF"/>
<path d="M51.3013 140.632C51.2672 140.797 51.1917 140.954 51.0834 141.061C50.8669 141.275 50.5435 141.38 50.2543 141.32L15.4632 134.13C15.1326 134.062 14.8775 133.837 14.8048 133.563C14.7478 133.422 14.7406 133.249 14.7748 133.083C14.8773 132.587 15.3673 132.301 15.8218 132.395L50.6129 139.585C51.1173 139.646 51.4038 140.136 51.3013 140.632Z" fill="#EAFDFF"/>
<path d="M50.4929 150.59C50.4587 150.755 50.3832 150.912 50.275 151.019C50.0585 151.232 49.7351 151.338 49.4458 151.278L12.0103 143.541C11.6797 143.473 11.4246 143.248 11.3519 142.975C11.2949 142.834 11.2877 142.66 11.3219 142.494C11.4243 141.999 11.9144 141.712 12.3689 141.806L49.8045 149.543C50.3088 149.604 50.5953 150.094 50.4929 150.59Z" fill="#EAFDFF"/>
<path d="M78.3351 15.2424C78.1186 15.4561 77.7952 15.5616 77.506 15.5019L40.0704 7.76525C39.7399 7.69694 39.4848 7.47188 39.4121 7.19835C39.6286 6.98459 39.952 6.87909 40.2412 6.93886L77.6768 14.6755C78.0159 14.7025 78.2296 14.919 78.3351 15.2424Z" fill="#D3EEEF"/>
<path d="M76.3369 24.9112C76.1204 25.125 75.797 25.2305 75.5078 25.1707L39.8077 17.7927C39.4771 17.7244 39.222 17.4994 39.1493 17.2258C39.3658 17.0121 39.6892 16.9066 39.9784 16.9663L75.6786 24.3443C76.0091 24.4126 76.2229 24.6291 76.3369 24.9112Z" fill="#D3EEEF"/>
<path d="M70.2396 33.7759C70.023 33.9897 69.6997 34.0952 69.4104 34.0354L45.9409 29.1851C45.6103 29.1167 45.3552 28.8917 45.2825 28.6182C45.499 28.4044 45.8224 28.2989 46.1117 28.3587L69.5812 33.209C69.8704 33.2688 70.1255 33.4938 70.2396 33.7759Z" fill="#D3EEEF"/>
<path d="M60.8397 62.1647C60.6232 62.3785 60.2998 62.484 60.0105 62.4242L39.7639 58.2399C39.4334 58.1716 39.1783 57.9466 39.1056 57.673C39.3221 57.4593 39.6455 57.3538 39.9347 57.4135L60.1813 61.5978C60.4706 61.6576 60.7256 61.8826 60.8397 62.1647Z" fill="#D3EEEF"/>
<path d="M63.5847 72.8568C63.3682 73.0706 63.0448 73.1761 62.7556 73.1163L31.5179 66.6606C31.1874 66.5922 30.9323 66.3672 30.8596 66.0937C31.0761 65.8799 31.3995 65.7744 31.6887 65.8342L62.885 72.2813C63.2241 72.3083 63.4707 72.5747 63.5847 72.8568Z" fill="#D3EEEF"/>
<path d="M64.3051 83.1305C64.0885 83.3443 63.7651 83.4498 63.4759 83.39L26.0403 75.6534C25.7098 75.5851 25.4547 75.36 25.382 75.0865C25.5985 74.8727 25.9219 74.7672 26.2111 74.827L63.6467 82.5636C63.9858 82.5906 64.1996 82.8071 64.3051 83.1305Z" fill="#D3EEEF"/>
<path d="M59.9516 92.3125C59.7351 92.5263 59.4117 92.6318 59.1225 92.572L27.3064 85.9968C26.9758 85.9284 26.7208 85.7034 26.648 85.4299C26.8645 85.2161 27.1879 85.1106 27.4772 85.1704L59.2933 91.7456C59.5825 91.8054 59.8376 92.0305 59.9516 92.3125Z" fill="#D3EEEF"/>
<path d="M51.6643 100.725C51.4478 100.938 51.1244 101.044 50.8352 100.984L30.4646 96.7743C30.134 96.706 29.879 96.4809 29.8062 96.2074C30.0228 95.9936 30.3462 95.8881 30.6354 95.9479L51.006 100.158C51.2952 100.218 51.5503 100.443 51.6643 100.725Z" fill="#D3EEEF"/>
<path d="M42.2644 129.113C42.0479 129.327 41.7245 129.433 41.4353 129.373L26.5602 126.299C26.2297 126.231 25.9746 126.005 25.9019 125.732C26.1184 125.518 26.4418 125.413 26.731 125.472L41.5648 128.538C41.8953 128.606 42.1504 128.831 42.2644 129.113Z" fill="#D3EEEF"/>
<path d="M51.0834 141.061C50.8669 141.275 50.5435 141.38 50.2543 141.32L15.4632 134.13C15.1326 134.062 14.8775 133.837 14.8048 133.563C15.0213 133.35 15.3447 133.244 15.634 133.304L50.4251 140.494C50.7642 140.521 50.9694 140.779 51.0834 141.061Z" fill="#D3EEEF"/>
<path d="M50.275 151.019C50.0585 151.232 49.7351 151.338 49.4458 151.278L12.0103 143.541C11.6797 143.473 11.4246 143.248 11.3519 142.975C11.5684 142.761 11.8918 142.655 12.181 142.715L49.6166 150.452C49.9557 150.479 50.1695 150.695 50.275 151.019Z" fill="#D3EEEF"/>
</svg>
